<svg width="40" height="40" viewBox="0 0 40 40" fill="none" xmlns="http://www.w3.org/2000/svg">
<rect width="40" height="40" rx="12" fill="#3FB195" fill-opacity="0.2"/>
<path d="M24.7651 23C24.4283 23.0013 24.0953 23.0706 23.786 23.2038C23.4767 23.3369 23.1975 23.5312 22.9651 23.775L16.8701 20.725C17.02 20.2704 17.02 19.7796 16.8701 19.325L22.9751 16.22C23.4124 16.6808 24.0054 16.9626 24.6388 17.0105C25.2723 17.0585 25.901 16.8692 26.4026 16.4794C26.9043 16.0897 27.2431 15.5274 27.3533 14.9017C27.4634 14.2761 27.337 13.6318 26.9986 13.0942C26.6602 12.5565 26.134 12.1639 25.5223 11.9926C24.9105 11.8214 24.257 11.8836 23.6886 12.1674C23.1202 12.4512 22.6776 12.9361 22.4469 13.528C22.2162 14.1199 22.2137 14.7764 22.4401 15.37L16.3951 18.445C16.0686 18.0457 15.6266 17.7572 15.1298 17.619C14.6329 17.4807 14.1054 17.4996 13.6196 17.6729C13.1338 17.8462 12.7136 18.1655 12.4164 18.5871C12.1192 19.0086 11.9597 19.5117 11.9597 20.0275C11.9597 20.5433 12.1192 21.0464 12.4164 21.4679C12.7136 21.8895 13.1338 22.2088 13.6196 22.3821C14.1054 22.5554 14.6329 22.5743 15.1298 22.436C15.6266 22.2978 16.0686 22.0093 16.3951 21.61L22.4251 24.645C22.3232 24.9186 22.2707 25.2081 22.2701 25.5C22.2701 25.9945 22.4167 26.4778 22.6914 26.8889C22.9661 27.3 23.3566 27.6205 23.8134 27.8097C24.2702 27.9989 24.7729 28.0484 25.2578 27.952C25.7428 27.8555 26.1882 27.6174 26.5379 27.2678C26.8875 26.9181 27.1256 26.4727 27.2221 25.9877C27.3185 25.5028 27.269 25.0001 27.0798 24.5433C26.8906 24.0865 26.5701 23.696 26.159 23.4213C25.7479 23.1466 25.2646 23 24.7701 23H24.7651Z" fill="white"/>
</svg>
